# Blender v2.76 (sub 0) OBJ File: ''
# www.blender.org
mtllib tablemini.mtl
o Couche:OBJECT005
v -3.155520 -0.400001 3.400010
v -5.940190 -4.400001 4.776789
v -5.840190 -4.400001 4.949999
v -3.255520 -0.400001 3.226800
v -3.255520 -3.200001 3.226799
v -5.666990 -6.400001 4.849999
v -5.766990 -6.400001 4.676789
v -3.155520 -3.200001 3.400010
v -6.200000 -6.400001 4.926789
v -6.100000 -6.400001 5.099999
vn -0.684500 0.612600 0.395200
vn 0.641700 -0.671500 -0.370500
vn -0.500000 0.000000 -0.866000
vn 0.500000 -0.000000 0.866000
vn -0.856400 0.148300 0.494500
vn 0.866000 0.000000 -0.500000
vn 0.000000 -1.000000 0.000000
usemtl brownskn
s 1
f 1//1 2//1 3//1
f 1//1 4//1 2//1
f 5//2 6//2 7//2
f 5//2 8//2 6//2
f 4//3 9//3 2//3
f 4//3 7//3 9//3
f 4//3 5//3 7//3
f 8//4 10//4 6//4
f 8//4 3//4 10//4
f 8//4 1//4 3//4
f 9//5 3//5 2//5
f 9//5 10//5 3//5
f 1//6 5//6 4//6
f 1//6 8//6 5//6
f 10//7 7//7 6//7
f 10//7 9//7 7//7
o Couche:OBJECT000
v -5.900000 2.800000 1.000000
v -5.900000 2.799999 4.600000
v -6.400000 2.799999 2.800000
v -4.600000 2.799999 5.900001
v -2.800000 2.799999 6.400001
v -1.000000 2.799999 5.900001
v 0.300000 2.799999 4.600000
v 0.800000 2.799999 2.800000
v 0.300000 2.800000 1.000000
v -1.000000 2.800000 -0.300000
v -2.800000 2.800000 -0.800000
v -4.600000 2.800000 -0.300000
v -1.000000 3.100000 -0.300000
v 0.800000 3.099999 2.800000
v 0.300000 3.100000 1.000000
v 0.300000 3.099999 4.600000
v -1.000000 3.099999 5.900001
v -2.800000 3.099999 6.400001
v -4.600000 3.099999 5.900001
v -5.900000 3.099999 4.600000
v -6.400000 3.099999 2.800000
v -5.900000 3.100000 1.000000
v -4.600000 3.100000 -0.300000
v -2.800000 3.100000 -0.800000
vn 0.000000 -1.000000 -0.000000
vn 0.000000 1.000000 0.000000
vn 0.267600 0.000000 -0.963500
vn 0.707100 0.000000 -0.707100
vn 0.963500 0.000000 -0.267600
vn 0.963500 0.000000 0.267600
vn 0.707100 0.000000 0.707100
vn 0.267600 0.000000 0.963500
vn -0.267600 0.000000 0.963500
vn -0.707100 0.000000 0.707100
vn -0.963500 0.000000 0.267600
vn -0.963500 0.000000 -0.267600
vn -0.707100 0.000000 -0.707100
vn -0.267600 0.000000 -0.963500
usemtl brownskn
s 1
f 11//8 12//8 13//8
f 11//8 14//8 12//8
f 11//8 15//8 14//8
f 11//8 16//8 15//8
f 11//8 17//8 16//8
f 11//8 18//8 17//8
f 11//8 19//8 18//8
f 11//8 20//8 19//8
f 11//8 21//8 20//8
f 11//8 22//8 21//8
f 23//9 24//9 25//9
f 23//9 26//9 24//9
f 23//9 27//9 26//9
f 23//9 28//9 27//9
f 23//9 29//9 28//9
f 23//9 30//9 29//9
f 23//9 31//9 30//9
f 23//9 32//9 31//9
f 23//9 33//9 32//9
f 23//9 34//9 33//9
f 20//10 34//10 23//10
f 20//10 21//10 34//10
f 19//11 23//11 25//11
f 19//11 20//11 23//11
f 18//12 25//12 24//12
f 18//12 19//12 25//12
f 17//13 24//13 26//13
f 17//13 18//13 24//13
f 16//14 26//14 27//14
f 16//14 17//14 26//14
f 15//15 27//15 28//15
f 15//15 16//15 27//15
f 14//16 28//16 29//16
f 14//16 15//16 28//16
f 12//17 29//17 30//17
f 12//17 14//17 29//17
f 13//18 30//18 31//18
f 13//18 12//18 30//18
f 11//19 31//19 32//19
f 11//19 13//19 31//19
f 22//20 32//20 33//20
f 22//20 11//20 32//20
f 21//21 33//21 34//21
f 21//21 22//21 33//21
o Couche:OBJECT001
v -5.727780 3.100000 1.100001
v -5.727780 3.099999 4.500000
v -6.200000 3.099999 2.800000
v -4.500000 3.099999 5.727780
v -2.800000 3.099999 6.200000
v -1.100000 3.099999 5.727780
v 0.127780 3.099999 4.500000
v 0.600000 3.099999 2.800000
v 0.127780 3.100000 1.100001
v -1.100000 3.100000 -0.127779
v -2.800000 3.100000 -0.600000
v -4.500000 3.100000 -0.127779
v -1.100000 3.300000 -0.127779
v 0.600000 3.299999 2.800000
v 0.127780 3.300000 1.100001
v 0.127780 3.299999 4.500000
v -1.100000 3.299999 5.727780
v -2.800000 3.299999 6.200000
v -4.500000 3.299999 5.727780
v -5.727780 3.299999 4.500000
v -6.200000 3.299999 2.800000
v -5.727780 3.300000 1.100001
v -4.500000 3.300000 -0.127779
v -2.800000 3.300000 -0.599999
vn -0.000000 -1.000000 -0.000000
vn 0.000000 1.000000 0.000000
vn 0.267600 -0.000000 -0.963500
vn 0.707100 0.000000 -0.707100
vn 0.963500 0.000000 -0.267600
vn 0.963500 0.000000 0.267600
vn 0.707100 0.000000 0.707100
vn 0.267600 0.000000 0.963500
vn -0.267600 0.000000 0.963500
vn -0.707100 0.000000 0.707100
vn -0.963500 0.000000 0.267600
vn -0.963500 0.000000 -0.267600
vn -0.707100 0.000000 -0.707100
vn -0.267600 0.000000 -0.963500
usemtl flbrown
s 1
f 35//22 36//22 37//22
f 35//22 38//22 36//22
f 35//22 39//22 38//22
f 35//22 40//22 39//22
f 35//22 41//22 40//22
f 35//22 42//22 41//22
f 35//22 43//22 42//22
f 35//22 44//22 43//22
f 35//22 45//22 44//22
f 35//22 46//22 45//22
f 47//23 48//23 49//23
f 47//23 50//23 48//23
f 47//23 51//23 50//23
f 47//23 52//23 51//23
f 47//23 53//23 52//23
f 47//23 54//23 53//23
f 47//23 55//23 54//23
f 47//23 56//23 55//23
f 47//23 57//23 56//23
f 47//23 58//23 57//23
f 44//24 58//24 47//24
f 44//24 45//24 58//24
f 43//25 47//25 49//25
f 43//25 44//25 47//25
f 42//26 49//26 48//26
f 42//26 43//26 49//26
f 41//27 48//27 50//27
f 41//27 42//27 48//27
f 40//28 50//28 51//28
f 40//28 41//28 50//28
f 39//29 51//29 52//29
f 39//29 40//29 51//29
f 38//30 52//30 53//30
f 38//30 39//30 52//30
f 36//31 53//31 54//31
f 36//31 38//31 53//31
f 37//32 54//32 55//32
f 37//32 36//32 54//32
f 35//33 55//33 56//33
f 35//33 37//33 55//33
f 46//34 56//34 57//34
f 46//34 35//34 56//34
f 45//35 57//35 58//35
f 45//35 46//35 57//35
o Couche:OBJECT002
v -3.700000 -3.200001 2.799999
v -2.800000 -3.200001 3.799999
v -3.400000 -3.200001 3.500000
v -2.100000 -3.200001 3.500000
v -1.800000 -3.200001 2.799999
v -2.100000 -3.200001 2.200000
v -2.800000 -3.200000 1.899999
v -3.400000 -3.200001 2.200000
v -2.100000 2.799999 2.200001
v -2.100000 2.799999 3.500000
v -1.800000 2.799999 2.800000
v -2.800000 2.799999 3.800000
v -3.400000 2.799999 3.500000
v -3.700000 2.799999 2.800000
v -3.400000 2.799999 2.200001
v -2.800000 2.800000 1.900000
vn 0.000000 -1.000000 -0.000000
vn -0.000000 1.000000 0.000000
vn 0.393900 0.000000 -0.919100
vn 0.894400 0.000000 -0.447200
vn 0.919100 -0.000000 0.393900
vn 0.393900 -0.000000 0.919100
vn -0.447200 -0.000000 0.894400
vn -0.919100 -0.000000 0.393900
vn -0.894400 0.000000 -0.447200
vn -0.447200 0.000000 -0.894400
usemtl brownskn
s 1
f 59//36 60//36 61//36
f 59//36 62//36 60//36
f 59//36 63//36 62//36
f 59//36 64//36 63//36
f 59//36 65//36 64//36
f 59//36 66//36 65//36
f 67//37 68//37 69//37
f 67//37 70//37 68//37
f 67//37 71//37 70//37
f 67//37 72//37 71//37
f 67//37 73//37 72//37
f 67//37 74//37 73//37
f 64//38 74//38 67//38
f 64//38 65//38 74//38
f 63//39 67//39 69//39
f 63//39 64//39 67//39
f 62//40 69//40 68//40
f 62//40 63//40 69//40
f 60//41 68//41 70//41
f 60//41 62//41 68//41
f 61//42 70//42 71//42
f 61//42 60//42 70//42
f 59//43 71//43 72//43
f 59//43 61//43 71//43
f 66//44 72//44 73//44
f 66//44 59//44 72//44
f 65//45 73//45 74//45
f 65//45 66//45 73//45
o Couche:OBJECT004
v -2.600000 -4.400000 -0.900001
v -2.800000 -0.400000 2.200000
v -2.600000 -0.400000 2.200000
v -2.800000 -4.400000 -0.900001
v -2.800000 -6.400000 -0.700001
v -2.600000 -3.200001 2.200000
v -2.800000 -3.200001 2.200000
v -2.600000 -6.400000 -0.700001
v -2.800000 -6.400000 -1.200001
v -2.600000 -6.400000 -1.200001
vn 0.000000 0.612600 -0.790400
vn 0.000000 -0.671500 0.741000
vn -1.000000 0.000000 0.000000
vn 1.000000 -0.000000 0.000000
vn 0.000000 0.148300 -0.988900
vn 0.000000 -0.000000 1.000000
vn 0.000000 -1.000000 0.000000
usemtl brownskn
s 1
f 75//46 76//46 77//46
f 75//46 78//46 76//46
f 79//47 80//47 81//47
f 79//47 82//47 80//47
f 83//48 76//48 78//48
f 83//48 81//48 76//48
f 83//48 79//48 81//48
f 84//49 80//49 82//49
f 84//49 77//49 80//49
f 84//49 75//49 77//49
f 78//50 84//50 83//50
f 78//50 75//50 84//50
f 76//51 80//51 77//51
f 76//51 81//51 80//51
f 82//52 83//52 84//52
f 82//52 79//52 83//52
o Couche:OBJECT003
v 0.362450 -4.400001 4.986599
v -2.222240 -0.400001 3.263400
v -2.322240 -0.400001 3.436610
v 0.462450 -4.400001 4.813389
v 0.289230 -6.400001 4.713389
v -2.322240 -3.200001 3.436610
v -2.222240 -3.200001 3.263400
v 0.189230 -6.400001 4.886599
v 0.722240 -6.400001 4.963389
v 0.622240 -6.400001 5.136599
vn 0.684500 0.612600 0.395200
vn -0.641700 -0.671500 -0.370500
vn 0.500000 0.000000 -0.866000
vn -0.500000 -0.000000 0.866000
vn 0.856500 0.148300 0.494500
vn -0.866000 0.000000 -0.500000
vn 0.000000 -1.000000 -0.000000
usemtl brownskn
s 1
f 85//53 86//53 87//53
f 85//53 88//53 86//53
f 89//54 90//54 91//54
f 89//54 92//54 90//54
f 93//55 86//55 88//55
f 93//55 91//55 86//55
f 93//55 89//55 91//55
f 94//56 90//56 92//56
f 94//56 87//56 90//56
f 94//56 85//56 87//56
f 88//57 94//57 93//57
f 88//57 85//57 94//57
f 86//58 90//58 87//58
f 86//58 91//58 90//58
f 92//59 93//59 94//59
f 92//59 89//59 93//59
